<svg width="24" height="25" viewBox="0 0 24 25" fill="none" xmlns="http://www.w3.org/2000/svg">
<path d="M20.83 8.62718L14.28 3.38718C13 2.36718 11 2.35718 9.72999 3.37718L3.17999 8.62718C2.23999 9.37718 1.66999 10.8772 1.86999 12.0572L3.12999 19.5972C3.41999 21.2872 4.98999 22.6172 6.69999 22.6172H17.3C18.99 22.6172 20.59 21.2572 20.88 19.5872L22.14 12.0472C22.32 10.8772 21.75 9.37718 20.83 8.62718ZM12.75 18.6172C12.75 19.0272 12.41 19.3672 12 19.3672C11.59 19.3672 11.25 19.0272 11.25 18.6172V15.6172C11.25 15.2072 11.59 14.8672 12 14.8672C12.41 14.8672 12.75 15.2072 12.75 15.6172V18.6172Z" fill="#1863D3"/>
</svg>
